<svg id="TJA_logo" data-name="TJA logo" xmlns="http://www.w3.org/2000/svg" viewBox="0 0 59.58 54.29"><title>tja logo</title><path d="M41,44.86H38.16l3.53,9.43h2.83L41,44.86M31.42,16.78H31.28l-1.35,4,4.42,13.27h2.83L31.42,16.78M36.29,0H20.88L0,54.29H2.83L23.72,0H36.29" fill="#f44336"/><path d="M38.16,44.86H18.72L15,54.29h2.83l3.74-9.43H38.16M28.59,16.78H28.44L22.61,34.06h2.83l4.48-13.27-1.34-4M39.13,0H36.29L56.74,54.29h2.83L39.13,0" fill="#2196f3"/><path d="M22.61,34.06l5.83-17.28h0.14l1.34,4,1.35-4h0.14l5.76,17.28H22.61M36.29,0H23.72L2.83,54.29H15l3.74-9.43H41l3.53,9.43H56.74L36.29,0" fill="#202733"/></svg>