<svg xmlns="http://www.w3.org/2000/svg" width="83" height="36" fill="none" viewBox="0 0 83 36">
    <g fill="#fff" fill-rule="evenodd" clip-rule="evenodd">
        <path d="M52.098 35.58c-.096-.012-.19-.034-.286-.037-1.58-.037-3.12-.297-4.607-.837-.982-.357-1.903-.826-2.646-1.586-.691-.707-1.005-1.538-.86-2.534.114-.784.43-1.455 1.03-1.981.62-.542 1.345-.674 2.138-.54.589.1 1.127.34 1.66.595.805.385 1.599.8 2.47 1.022.728.185 1.465.28 2.21.121.508-.107.926-.346 1.096-.878a1.25 1.25 0 0 0-.432-1.372c-.403-.314-.87-.505-1.339-.692-1.25-.498-2.507-.978-3.751-1.489-.84-.343-1.647-.753-2.39-1.28-1.188-.841-1.882-1.973-2.07-3.42-.169-1.294-.052-2.55.462-3.755a7.245 7.245 0 0 1 2.062-2.758c1.038-.863 2.226-1.418 3.54-1.704a10.054 10.054 0 0 1 3.5-.144c1.332.18 2.613.522 3.8 1.17.708.387 1.33.875 1.781 1.558.653.99.742 2.304.084 3.312-.457.7-1.134 1.06-1.964 1.144-.49.051-.945-.074-1.385-.26-.57-.242-1.131-.5-1.699-.745-.627-.272-1.268-.503-1.953-.571-.511-.051-1.013-.02-1.484.24-.665.365-.956 1.401-.15 2.01.464.35.985.583 1.52.79.973.373 1.957.717 2.923 1.107 1.14.46 2.238 1.007 3.177 1.824 1.058.922 1.733 2.059 1.923 3.465.188 1.38.01 2.709-.576 3.972-.443.952-1.098 1.742-1.92 2.393-.975.77-2.082 1.265-3.282 1.556a8.82 8.82 0 0 1-1.934.263c-.125.001-.248.027-.372.042h-.276zM62.124 18.388c0-4.378.002-8.757-.003-13.134-.001-.703.12-1.369.48-1.978.568-.958 1.41-1.497 2.521-1.604 1.033-.1 1.94.186 2.686.92.577.568.89 1.27.975 2.072.032.295.035.595.035.892.003 2.37.002 4.74.002 7.11 0 .058-.015.122.006.17.017.037.089.084.12.074.076-.02.142-.071.21-.113.901-.55 1.853-.982 2.879-1.236a10.904 10.904 0 0 1 3.238-.293c.873.048 1.73.172 2.566.426 1.512.46 2.795 1.264 3.739 2.552.596.814.993 1.73 1.18 2.721.106.566.203 1.144.207 1.717.027 4.337.04 8.675.034 13.012-.002 1.133-.42 2.108-1.35 2.808-.705.532-1.51.72-2.384.625-1.026-.111-1.828-.598-2.395-1.458-.428-.649-.57-1.374-.57-2.142.006-3.449.004-6.898.002-10.347 0-.838-.111-1.656-.518-2.408-.55-1.015-1.393-1.615-2.534-1.802-.826-.135-1.624-.055-2.38.307-.924.44-1.496 1.187-1.81 2.144a5.242 5.242 0 0 0-.241 1.658c.002 3.523.002 7.046 0 10.57 0 .628-.128 1.23-.434 1.783-.554.999-1.398 1.575-2.536 1.692-1.203.124-2.217-.258-2.983-1.21a3.17 3.17 0 0 1-.732-2.015c-.01-4.504-.005-9.009-.005-13.513h-.005zM25.021 29.95h.254c1.779 0 3.558-.009 5.336.006.479.005.964.042 1.433.134 1.027.2 1.707.916 1.833 1.977.056.468.045.93-.096 1.377-.274.873-.903 1.36-1.776 1.531a6.393 6.393 0 0 1-1.211.11c-3.88.007-7.758.004-11.637 0-.573-.002-1.115-.14-1.569-.515-.396-.327-.59-.76-.637-1.269-.068-.726.224-1.337.624-1.901.842-1.189 1.7-2.366 2.557-3.545 1.574-2.167 3.15-4.332 4.726-6.499.04-.054.076-.112.136-.2-.1-.006-.17-.014-.24-.014H20.35c-.483 0-.962-.02-1.433-.137-.965-.243-1.624-.906-1.756-1.921-.07-.535-.059-1.065.136-1.574.219-.574.619-.978 1.186-1.222.505-.219 1.04-.281 1.577-.283 3.672-.006 7.345-.007 11.017.002.564.001 1.117.083 1.595.437.75.557 1.008 1.566.536 2.374-.338.577-.736 1.12-1.136 1.658-2.298 3.094-4.606 6.182-6.91 9.272-.039.052-.075.109-.14.203zM7.368 30.394h.268c1.692 0 3.385-.006 5.078.005.358.003.723.035 1.072.111.904.197 1.49.75 1.65 1.673.101.591.071 1.186-.21 1.742-.308.607-.833.92-1.47 1.049-.374.074-.76.106-1.142.107-3.46.008-6.92.007-10.38.002-.484-.001-.96-.06-1.394-.308-.501-.288-.763-.723-.827-1.29-.078-.684.198-1.26.577-1.79 1.102-1.54 2.216-3.07 3.328-4.602 1.098-1.513 2.2-3.024 3.298-4.537.04-.054.076-.111.135-.198-.098-.005-.162-.012-.227-.012-1.388 0-2.777.01-4.165-.006a6.17 6.17 0 0 1-1.174-.133C.85 22.014.22 21.227.184 20.27c-.015-.397-.003-.787.121-1.17.18-.55.543-.932 1.065-1.169.468-.213.97-.273 1.474-.273 3.357-.006 6.714-.008 10.07.001.556.001 1.096.093 1.542.478.608.523.788 1.386.394 2.087-.208.368-.45.72-.702 1.06-2.197 2.955-4.4 5.905-6.601 8.857-.05.068-.098.138-.179.253zM38.703 6.32c.02-.031.049-.106.1-.158 1.758-1.765 3.518-3.526 5.277-5.288.384-.385.82-.68 1.359-.801.773-.174 1.49-.037 2.133.426.517.373.859.874 1.002 1.495.18.785.042 1.515-.445 2.162a5.575 5.575 0 0 1-.517.576c-2.33 2.335-4.665 4.667-6.998 7-.392.393-.839.694-1.39.81-.756.159-1.459.027-2.088-.425-.2-.142-.38-.315-.554-.49-1.419-1.413-2.833-2.83-4.25-4.246-.38-.38-.674-.81-.799-1.34-.182-.773-.048-1.49.409-2.138.382-.54.905-.89 1.554-1.03.767-.163 1.507-.051 2.106.46.626.535 1.184 1.15 1.776 1.726.42.407.847.807 1.325 1.261zM35.745 24.718c0-2.387.004-4.775-.002-7.162-.002-.607.097-1.185.404-1.717.472-.821 1.17-1.321 2.112-1.454.736-.104 1.435.019 2.054.438.757.513 1.19 1.24 1.305 2.148.03.232.035.468.035.702.002 4.746 0 9.492.003 14.237 0 .59-.104 1.15-.395 1.667-.457.816-1.14 1.32-2.065 1.47-.745.12-1.457.004-2.09-.416-.748-.493-1.186-1.197-1.316-2.084a4.973 4.973 0 0 1-.042-.72c-.004-2.37-.003-4.74-.003-7.11z"/>
    </g>
</svg>
